<svg width="109" height="58" viewBox="0 0 109 58" fill="none" xmlns="http://www.w3.org/2000/svg">
<g filter="url(#filter0_d_218_110)">
<path d="M7.60288 19.2584L3.04426 3.26692C2.80888 2.4412 3.6665 1.72817 4.44632 2.10123L19.549 9.3263C20.3521 9.7105 20.2917 10.863 19.453 11.1602L13.2417 13.361C13.0161 13.4409 12.8269 13.5982 12.7083 13.8045L9.44228 19.4832C9.00128 20.25 7.84518 20.1087 7.60288 19.2584Z" fill="#8267EC"/>
<path d="M2.5609 3.40159L7.11952 19.3931C7.48302 20.6685 9.21712 20.8804 9.87862 19.7302L13.1446 14.0515C13.2039 13.9483 13.2985 13.8697 13.4113 13.8297L19.6226 11.6289C20.8807 11.1832 20.9712 9.45434 19.7667 8.87814L4.664 1.65306C3.49426 1.09347 2.20783 2.16301 2.5609 3.40159Z" stroke="#8267EC"/>
</g>
<path d="M18.7104 37.5464C18.7104 27.053 27.217 18.5464 37.7104 18.5464H88.7104C99.2034 18.5464 107.71 27.053 107.71 37.5464C107.71 48.0398 99.2034 56.5464 88.7104 56.5464H37.7104C27.217 56.5464 18.7104 48.0398 18.7104 37.5464Z" fill="#8267EC"/>
<path d="M18.7104 37.5464C18.7104 27.053 27.217 18.5464 37.7104 18.5464H88.7104C99.2034 18.5464 107.71 27.053 107.71 37.5464C107.71 48.0398 99.2034 56.5464 88.7104 56.5464H37.7104C27.217 56.5464 18.7104 48.0398 18.7104 37.5464Z" stroke="#8267EC" stroke-width="2"/>
<path d="M30.5964 44.5464V31.3164H36.3924V33.0804H32.5944V36.7344H35.6544V38.5344H32.5944V42.7644H36.9864V44.5464H30.5964ZM42.035 44.7264C41.303 44.7264 40.619 44.5524 39.983 44.2044C39.359 43.8564 38.855 43.3584 38.471 42.7104C38.087 42.0624 37.895 41.2884 37.895 40.3884C37.895 39.5244 38.057 38.7684 38.381 38.1204C38.717 37.4724 39.185 36.9684 39.785 36.6084C40.397 36.2484 41.123 36.0684 41.963 36.0684C42.467 36.0684 42.923 36.1584 43.331 36.3384C43.751 36.5064 44.099 36.7164 44.375 36.9684C44.663 37.2084 44.855 37.4424 44.951 37.6704L44.987 36.2844H46.841V44.5464H45.005L44.969 43.0884C44.849 43.3524 44.645 43.6104 44.357 43.8624C44.081 44.1144 43.745 44.3244 43.349 44.4924C42.953 44.6484 42.515 44.7264 42.035 44.7264ZM42.359 43.1064C42.803 43.1064 43.205 43.0044 43.565 42.8004C43.937 42.5844 44.231 42.2844 44.447 41.9004C44.675 41.5164 44.789 41.0604 44.789 40.5324V40.4064C44.789 39.8664 44.675 39.3984 44.447 39.0024C44.231 38.5944 43.937 38.2824 43.565 38.0664C43.205 37.8384 42.803 37.7244 42.359 37.7244C41.555 37.7244 40.949 37.9824 40.541 38.4984C40.145 39.0144 39.947 39.6504 39.947 40.4064C39.947 41.1744 40.145 41.8164 40.541 42.3324C40.949 42.8484 41.555 43.1064 42.359 43.1064ZM52.0356 44.7264C51.6516 44.7264 51.2496 44.6904 50.8296 44.6184C50.4216 44.5464 50.0436 44.4564 49.6956 44.3484C49.3596 44.2284 49.1016 44.1024 48.9216 43.9704L49.5696 42.4404C49.7736 42.5844 50.0796 42.7464 50.4876 42.9264C50.9076 43.1064 51.4236 43.1964 52.0356 43.1964C52.5756 43.1964 52.9416 43.1184 53.1336 42.9624C53.3256 42.7944 53.4216 42.6024 53.4216 42.3864C53.4216 42.1584 53.3376 41.9844 53.1696 41.8644C53.0136 41.7324 52.7856 41.6124 52.4856 41.5044C52.1856 41.3964 51.8316 41.2644 51.4236 41.1084C51.0276 40.9404 50.6496 40.7484 50.2896 40.5324C49.9296 40.3044 49.6356 40.0284 49.4076 39.7044C49.1916 39.3684 49.0836 38.9604 49.0836 38.4804C49.0836 37.7004 49.3836 37.1064 49.9836 36.6984C50.5836 36.2784 51.3756 36.0684 52.3596 36.0684C52.8636 36.0684 53.3496 36.1224 53.8176 36.2304C54.2976 36.3384 54.6576 36.4764 54.8976 36.6444L54.1956 38.1924C54.0516 38.0484 53.8116 37.9164 53.4756 37.7964C53.1516 37.6764 52.7616 37.6164 52.3056 37.6164C51.4536 37.6164 51.0276 37.8744 51.0276 38.3904C51.0276 38.6424 51.1176 38.8464 51.2976 39.0024C51.4896 39.1464 51.7356 39.2724 52.0356 39.3804C52.3476 39.4764 52.6836 39.5964 53.0436 39.7404C53.7756 40.0284 54.3336 40.3644 54.7176 40.7484C55.1136 41.1204 55.3116 41.6184 55.3116 42.2424C55.3116 42.8064 55.1616 43.2744 54.8616 43.6464C54.5616 44.0184 54.1596 44.2944 53.6556 44.4744C53.1636 44.6424 52.6236 44.7264 52.0356 44.7264ZM57.6957 49.0824L59.4777 44.7984L56.0577 36.2844H58.2537L60.0177 41.5404L60.4137 42.8184L60.8097 41.5404L62.6637 36.2844H64.7877L59.7117 49.0824H57.6957ZM66.085 48.9204V36.2844H67.957V37.8144C68.233 37.3224 68.617 36.9084 69.109 36.5724C69.613 36.2364 70.261 36.0684 71.053 36.0684C71.797 36.0684 72.463 36.2244 73.051 36.5364C73.639 36.8484 74.101 37.3224 74.437 37.9584C74.785 38.5944 74.959 39.3984 74.959 40.3704C74.959 41.2584 74.779 42.0324 74.419 42.6924C74.059 43.3404 73.579 43.8444 72.979 44.2044C72.379 44.5524 71.707 44.7264 70.963 44.7264C70.255 44.7264 69.649 44.6004 69.145 44.3484C68.641 44.0964 68.245 43.7484 67.957 43.3044V48.9204H66.085ZM70.513 43.0884C71.329 43.0884 71.935 42.8304 72.331 42.3144C72.739 41.7984 72.943 41.1684 72.943 40.4244C72.943 39.6444 72.739 39.0024 72.331 38.4984C71.935 37.9944 71.329 37.7424 70.513 37.7424C70.081 37.7424 69.679 37.8444 69.307 38.0484C68.935 38.2524 68.635 38.5464 68.407 38.9304C68.179 39.3144 68.065 39.7764 68.065 40.3164V40.4424C68.065 40.9704 68.179 41.4384 68.407 41.8464C68.635 42.2424 68.935 42.5484 69.307 42.7644C69.679 42.9804 70.081 43.0884 70.513 43.0884ZM80.6893 44.7264C79.9573 44.7264 79.2733 44.5524 78.6373 44.2044C78.0133 43.8564 77.5093 43.3584 77.1253 42.7104C76.7413 42.0624 76.5493 41.2884 76.5493 40.3884C76.5493 39.5244 76.7113 38.7684 77.0353 38.1204C77.3713 37.4724 77.8393 36.9684 78.4393 36.6084C79.0513 36.2484 79.7773 36.0684 80.6173 36.0684C81.1213 36.0684 81.5773 36.1584 81.9853 36.3384C82.4053 36.5064 82.7533 36.7164 83.0293 36.9684C83.3173 37.2084 83.5093 37.4424 83.6053 37.6704L83.6413 36.2844H85.4953V44.5464H83.6593L83.6233 43.0884C83.5033 43.3524 83.2993 43.6104 83.0113 43.8624C82.7353 44.1144 82.3993 44.3244 82.0033 44.4924C81.6073 44.6484 81.1693 44.7264 80.6893 44.7264ZM81.0133 43.1064C81.4573 43.1064 81.8593 43.0044 82.2193 42.8004C82.5913 42.5844 82.8853 42.2844 83.1013 41.9004C83.3293 41.5164 83.4433 41.0604 83.4433 40.5324V40.4064C83.4433 39.8664 83.3293 39.3984 83.1013 39.0024C82.8853 38.5944 82.5913 38.2824 82.2193 38.0664C81.8593 37.8384 81.4573 37.7244 81.0133 37.7244C80.2093 37.7244 79.6033 37.9824 79.1953 38.4984C78.7993 39.0144 78.6013 39.6504 78.6013 40.4064C78.6013 41.1744 78.7993 41.8164 79.1953 42.3324C79.6033 42.8484 80.2093 43.1064 81.0133 43.1064ZM88.5278 49.0824L90.3098 44.7984L86.8898 36.2844H89.0858L90.8498 41.5404L91.2458 42.8184L91.6418 41.5404L93.4958 36.2844H95.6198L90.5438 49.0824H88.5278Z" fill="white"/>
<defs>
<filter id="filter0_d_218_110" x="0" y="0" width="23.1204" height="23.9829" filterUnits="userSpaceOnUse" color-interpolation-filters="sRGB">
<feFlood flood-opacity="0" result="BackgroundImageFix"/>
<feColorMatrix in="SourceAlpha" type="matrix" values="0 0 0 0 0 0 0 0 0 0 0 0 0 0 0 0 0 0 127 0" result="hardAlpha"/>
<feOffset dy="1"/>
<feGaussianBlur stdDeviation="1"/>
<feComposite in2="hardAlpha" operator="out"/>
<feColorMatrix type="matrix" values="0 0 0 0 0 0 0 0 0 0 0 0 0 0 0 0 0 0 0.08 0"/>
<feBlend mode="normal" in2="BackgroundImageFix" result="effect1_dropShadow_218_110"/>
<feBlend mode="normal" in="SourceGraphic" in2="effect1_dropShadow_218_110" result="shape"/>
</filter>
</defs>
</svg>
