<svg width="109" height="58" viewBox="0 0 109 58" fill="none" xmlns="http://www.w3.org/2000/svg">
<g filter="url(#filter0_d_218_111)">
<path d="M88.7421 6.60264L104.734 2.04402C105.559 1.80864 106.272 2.66626 105.899 3.44608L98.6742 18.5487C98.29 19.3518 97.1375 19.2914 96.8403 18.4527L94.6395 12.2414C94.5596 12.0158 94.4023 11.8266 94.196 11.708L88.5173 8.44204C87.7505 8.00104 87.8918 6.84494 88.7421 6.60264Z" fill="#8267EC"/>
<path d="M104.599 1.5609L88.6073 6.11952C87.3319 6.48302 87.12 8.21712 88.2702 8.87862L93.9489 12.1446C94.0521 12.2039 94.1307 12.2985 94.1707 12.4113L96.3715 18.6226C96.8172 19.8807 98.5461 19.9712 99.1223 18.7667L106.347 3.664C106.907 2.49426 105.837 1.20783 104.599 1.5609Z" stroke="#8267EC"/>
</g>
<path d="M1 37.5474C1 27.054 9.5066 18.5474 20 18.5474H71C81.493 18.5474 90 27.054 90 37.5474C90 48.0408 81.493 56.5474 71 56.5474H20C9.5066 56.5474 1 48.0408 1 37.5474Z" fill="#8267EC"/>
<path d="M1 37.5474C1 27.054 9.5066 18.5474 20 18.5474H71C81.493 18.5474 90 27.054 90 37.5474C90 48.0408 81.493 56.5474 71 56.5474H20C9.5066 56.5474 1 48.0408 1 37.5474Z" stroke="#8267EC" stroke-width="2"/>
<path d="M12.886 44.5474V31.3174H18.682V33.0814H14.884V36.7354H17.944V38.5354H14.884V42.7654H19.276V44.5474H12.886ZM24.3246 44.7274C23.5926 44.7274 22.9086 44.5534 22.2726 44.2054C21.6486 43.8574 21.1446 43.3594 20.7606 42.7114C20.3766 42.0634 20.1846 41.2894 20.1846 40.3894C20.1846 39.5254 20.3466 38.7694 20.6706 38.1214C21.0066 37.4734 21.4746 36.9694 22.0746 36.6094C22.6866 36.2494 23.4126 36.0694 24.2526 36.0694C24.7566 36.0694 25.2126 36.1594 25.6206 36.3394C26.0406 36.5074 26.3886 36.7174 26.6646 36.9694C26.9526 37.2094 27.1446 37.4434 27.2406 37.6714L27.2766 36.2854H29.1306V44.5474H27.2946L27.2586 43.0894C27.1386 43.3534 26.9346 43.6114 26.6466 43.8634C26.3706 44.1154 26.0346 44.3254 25.6386 44.4934C25.2426 44.6494 24.8046 44.7274 24.3246 44.7274ZM24.6486 43.1074C25.0926 43.1074 25.4946 43.0054 25.8546 42.8014C26.2266 42.5854 26.5206 42.2854 26.7366 41.9014C26.9646 41.5174 27.0786 41.0614 27.0786 40.5334V40.4074C27.0786 39.8674 26.9646 39.3994 26.7366 39.0034C26.5206 38.5954 26.2266 38.2834 25.8546 38.0674C25.4946 37.8394 25.0926 37.7254 24.6486 37.7254C23.8446 37.7254 23.2386 37.9834 22.8306 38.4994C22.4346 39.0154 22.2366 39.6514 22.2366 40.4074C22.2366 41.1754 22.4346 41.8174 22.8306 42.3334C23.2386 42.8494 23.8446 43.1074 24.6486 43.1074ZM34.3251 44.7274C33.9411 44.7274 33.5391 44.6914 33.1191 44.6194C32.7111 44.5474 32.3331 44.4574 31.9851 44.3494C31.6491 44.2294 31.3911 44.1034 31.2111 43.9714L31.8591 42.4414C32.0631 42.5854 32.3691 42.7474 32.7771 42.9274C33.1971 43.1074 33.7131 43.1974 34.3251 43.1974C34.8651 43.1974 35.2311 43.1194 35.4231 42.9634C35.6151 42.7954 35.7111 42.6034 35.7111 42.3874C35.7111 42.1594 35.6271 41.9854 35.4591 41.8654C35.3031 41.7334 35.0751 41.6134 34.7751 41.5054C34.4751 41.3974 34.1211 41.2654 33.7131 41.1094C33.3171 40.9414 32.9391 40.7494 32.5791 40.5334C32.2191 40.3054 31.9251 40.0294 31.6971 39.7054C31.4811 39.3694 31.3731 38.9614 31.3731 38.4814C31.3731 37.7014 31.6731 37.1074 32.2731 36.6994C32.8731 36.2794 33.6651 36.0694 34.6491 36.0694C35.1531 36.0694 35.6391 36.1234 36.1071 36.2314C36.5871 36.3394 36.9471 36.4774 37.1871 36.6454L36.4851 38.1934C36.3411 38.0494 36.1011 37.9174 35.7651 37.7974C35.4411 37.6774 35.0511 37.6174 34.5951 37.6174C33.7431 37.6174 33.3171 37.8754 33.3171 38.3914C33.3171 38.6434 33.4071 38.8474 33.5871 39.0034C33.7791 39.1474 34.0251 39.2734 34.3251 39.3814C34.6371 39.4774 34.9731 39.5974 35.3331 39.7414C36.0651 40.0294 36.6231 40.3654 37.0071 40.7494C37.4031 41.1214 37.6011 41.6194 37.6011 42.2434C37.6011 42.8074 37.4511 43.2754 37.1511 43.6474C36.8511 44.0194 36.4491 44.2954 35.9451 44.4754C35.4531 44.6434 34.9131 44.7274 34.3251 44.7274ZM39.9853 49.0834L41.7673 44.7994L38.3473 36.2854H40.5433L42.3073 41.5414L42.7033 42.8194L43.0993 41.5414L44.9533 36.2854H47.0773L42.0013 49.0834H39.9853ZM48.3745 48.9214V36.2854H50.2465V37.8154C50.5225 37.3234 50.9065 36.9094 51.3985 36.5734C51.9025 36.2374 52.5505 36.0694 53.3425 36.0694C54.0865 36.0694 54.7525 36.2254 55.3405 36.5374C55.9285 36.8494 56.3905 37.3234 56.7265 37.9594C57.0745 38.5954 57.2485 39.3994 57.2485 40.3714C57.2485 41.2594 57.0685 42.0334 56.7085 42.6934C56.3485 43.3414 55.8685 43.8454 55.2685 44.2054C54.6685 44.5534 53.9965 44.7274 53.2525 44.7274C52.5445 44.7274 51.9385 44.6014 51.4345 44.3494C50.9305 44.0974 50.5345 43.7494 50.2465 43.3054V48.9214H48.3745ZM52.8025 43.0894C53.6185 43.0894 54.2245 42.8314 54.6205 42.3154C55.0285 41.7994 55.2325 41.1694 55.2325 40.4254C55.2325 39.6454 55.0285 39.0034 54.6205 38.4994C54.2245 37.9954 53.6185 37.7434 52.8025 37.7434C52.3705 37.7434 51.9685 37.8454 51.5965 38.0494C51.2245 38.2534 50.9245 38.5474 50.6965 38.9314C50.4685 39.3154 50.3545 39.7774 50.3545 40.3174V40.4434C50.3545 40.9714 50.4685 41.4394 50.6965 41.8474C50.9245 42.2434 51.2245 42.5494 51.5965 42.7654C51.9685 42.9814 52.3705 43.0894 52.8025 43.0894ZM62.9789 44.7274C62.2469 44.7274 61.5629 44.5534 60.9269 44.2054C60.3029 43.8574 59.7989 43.3594 59.4149 42.7114C59.0309 42.0634 58.8389 41.2894 58.8389 40.3894C58.8389 39.5254 59.0009 38.7694 59.3249 38.1214C59.6609 37.4734 60.1289 36.9694 60.7289 36.6094C61.3409 36.2494 62.0669 36.0694 62.9069 36.0694C63.4109 36.0694 63.8669 36.1594 64.2749 36.3394C64.6949 36.5074 65.0429 36.7174 65.3189 36.9694C65.6069 37.2094 65.7989 37.4434 65.8949 37.6714L65.9309 36.2854H67.7849V44.5474H65.9489L65.9129 43.0894C65.7929 43.3534 65.5889 43.6114 65.3009 43.8634C65.0249 44.1154 64.6889 44.3254 64.2929 44.4934C63.8969 44.6494 63.4589 44.7274 62.9789 44.7274ZM63.3029 43.1074C63.7469 43.1074 64.1489 43.0054 64.5089 42.8014C64.8809 42.5854 65.1749 42.2854 65.3909 41.9014C65.6189 41.5174 65.7329 41.0614 65.7329 40.5334V40.4074C65.7329 39.8674 65.6189 39.3994 65.3909 39.0034C65.1749 38.5954 64.8809 38.2834 64.5089 38.0674C64.1489 37.8394 63.7469 37.7254 63.3029 37.7254C62.4989 37.7254 61.8929 37.9834 61.4849 38.4994C61.0889 39.0154 60.8909 39.6514 60.8909 40.4074C60.8909 41.1754 61.0889 41.8174 61.4849 42.3334C61.8929 42.8494 62.4989 43.1074 63.3029 43.1074ZM70.8173 49.0834L72.5993 44.7994L69.1793 36.2854H71.3753L73.1393 41.5414L73.5353 42.8194L73.9313 41.5414L75.7853 36.2854H77.9093L72.8333 49.0834H70.8173Z" fill="white"/>
<defs>
<filter id="filter0_d_218_111" x="85.0176" y="0" width="23.9827" height="23.1201" filterUnits="userSpaceOnUse" color-interpolation-filters="sRGB">
<feFlood flood-opacity="0" result="BackgroundImageFix"/>
<feColorMatrix in="SourceAlpha" type="matrix" values="0 0 0 0 0 0 0 0 0 0 0 0 0 0 0 0 0 0 127 0" result="hardAlpha"/>
<feOffset dy="1"/>
<feGaussianBlur stdDeviation="1"/>
<feComposite in2="hardAlpha" operator="out"/>
<feColorMatrix type="matrix" values="0 0 0 0 0 0 0 0 0 0 0 0 0 0 0 0 0 0 0.08 0"/>
<feBlend mode="normal" in2="BackgroundImageFix" result="effect1_dropShadow_218_111"/>
<feBlend mode="normal" in="SourceGraphic" in2="effect1_dropShadow_218_111" result="shape"/>
</filter>
</defs>
</svg>
