<svg width="119" height="34" viewBox="0 0 119 34" fill="none" xmlns="http://www.w3.org/2000/svg">
<path d="M16.1947 8.20312C16.1947 12.7335 12.5694 16.4062 8.09734 16.4062H0V8.20312C0 3.67266 3.6253 0 8.09734 0C12.5694 0 16.1947 3.67266 16.1947 8.20312Z" fill="#5428FF"/>
<path d="M16.1946 24.6094C16.1946 20.079 19.8199 16.4062 24.2919 16.4062H32.3893V24.6094C32.3893 29.1398 28.764 32.8125 24.2919 32.8125C19.8199 32.8125 16.1946 29.1398 16.1946 24.6094Z" fill="#5428FF"/>
<path d="M0 24.6094C0 29.1398 3.6253 32.8125 8.09734 32.8125H16.1947V24.6094C16.1947 20.079 12.5694 16.4062 8.09734 16.4062C3.6253 16.4062 0 20.079 0 24.6094Z" fill="#8267EC"/>
<path d="M32.3893 8.20312C32.3893 3.67266 28.764 0 24.2919 0H16.1946V8.20312C16.1946 12.7335 19.8199 16.4062 24.2919 16.4062C28.764 16.4062 32.3893 12.7335 32.3893 8.20312Z" fill="#8267EC"/>
<path d="M39.046 23V7.565H45.808V9.623H41.377V13.886H44.947V15.986H41.377V20.921H46.501V23H39.046ZM52.391 23.21C51.537 23.21 50.739 23.007 49.997 22.601C49.269 22.195 48.681 21.614 48.233 20.858C47.785 20.102 47.561 19.199 47.561 18.149C47.561 17.141 47.75 16.259 48.128 15.503C48.52 14.747 49.066 14.159 49.766 13.739C50.48 13.319 51.327 13.109 52.307 13.109C52.895 13.109 53.427 13.214 53.903 13.424C54.393 13.62 54.799 13.865 55.121 14.159C55.457 14.439 55.681 14.712 55.793 14.978L55.835 13.361H57.998V23H55.856L55.814 21.299C55.674 21.607 55.436 21.908 55.1 22.202C54.778 22.496 54.386 22.741 53.924 22.937C53.462 23.119 52.951 23.21 52.391 23.21ZM52.769 21.32C53.287 21.32 53.756 21.201 54.176 20.963C54.61 20.711 54.953 20.361 55.205 19.913C55.471 19.465 55.604 18.933 55.604 18.317V18.17C55.604 17.54 55.471 16.994 55.205 16.532C54.953 16.056 54.61 15.692 54.176 15.44C53.756 15.174 53.287 15.041 52.769 15.041C51.831 15.041 51.124 15.342 50.648 15.944C50.186 16.546 49.955 17.288 49.955 18.17C49.955 19.066 50.186 19.815 50.648 20.417C51.124 21.019 51.831 21.32 52.769 21.32ZM64.0583 23.21C63.6103 23.21 63.1413 23.168 62.6513 23.084C62.1753 23 61.7343 22.895 61.3283 22.769C60.9363 22.629 60.6353 22.482 60.4253 22.328L61.1813 20.543C61.4193 20.711 61.7763 20.9 62.2523 21.11C62.7423 21.32 63.3443 21.425 64.0583 21.425C64.6883 21.425 65.1153 21.334 65.3393 21.152C65.5633 20.956 65.6753 20.732 65.6753 20.48C65.6753 20.214 65.5773 20.011 65.3813 19.871C65.1993 19.717 64.9333 19.577 64.5833 19.451C64.2333 19.325 63.8203 19.171 63.3443 18.989C62.8823 18.793 62.4413 18.569 62.0213 18.317C61.6013 18.051 61.2583 17.729 60.9923 17.351C60.7403 16.959 60.6143 16.483 60.6143 15.923C60.6143 15.013 60.9643 14.32 61.6643 13.844C62.3643 13.354 63.2883 13.109 64.4363 13.109C65.0243 13.109 65.5913 13.172 66.1373 13.298C66.6973 13.424 67.1173 13.585 67.3973 13.781L66.5783 15.587C66.4103 15.419 66.1303 15.265 65.7383 15.125C65.3603 14.985 64.9053 14.915 64.3733 14.915C63.3793 14.915 62.8823 15.216 62.8823 15.818C62.8823 16.112 62.9873 16.35 63.1973 16.532C63.4213 16.7 63.7083 16.847 64.0583 16.973C64.4223 17.085 64.8143 17.225 65.2343 17.393C66.0883 17.729 66.7393 18.121 67.1873 18.569C67.6493 19.003 67.8803 19.584 67.8803 20.312C67.8803 20.97 67.7053 21.516 67.3553 21.95C67.0053 22.384 66.5363 22.706 65.9483 22.916C65.3743 23.112 64.7443 23.21 64.0583 23.21ZM70.6618 28.292L72.7408 23.294L68.7508 13.361H71.3128L73.3708 19.493L73.8328 20.984L74.2948 19.493L76.4578 13.361H78.9358L73.0138 28.292H70.6618ZM80.4493 28.103V13.361H82.6333V15.146C82.9553 14.572 83.4033 14.089 83.9773 13.697C84.5653 13.305 85.3213 13.109 86.2453 13.109C87.1133 13.109 87.8903 13.291 88.5763 13.655C89.2623 14.019 89.8013 14.572 90.1933 15.314C90.5993 16.056 90.8023 16.994 90.8023 18.128C90.8023 19.164 90.5923 20.067 90.1723 20.837C89.7523 21.593 89.1923 22.181 88.4923 22.601C87.7923 23.007 87.0083 23.21 86.1403 23.21C85.3143 23.21 84.6073 23.063 84.0193 22.769C83.4313 22.475 82.9693 22.069 82.6333 21.551V28.103H80.4493ZM85.6153 21.299C86.5673 21.299 87.2743 20.998 87.7363 20.396C88.2123 19.794 88.4503 19.059 88.4503 18.191C88.4503 17.281 88.2123 16.532 87.7363 15.944C87.2743 15.356 86.5673 15.062 85.6153 15.062C85.1113 15.062 84.6423 15.181 84.2083 15.419C83.7743 15.657 83.4243 16 83.1583 16.448C82.8923 16.896 82.7593 17.435 82.7593 18.065V18.212C82.7593 18.828 82.8923 19.374 83.1583 19.85C83.4243 20.312 83.7743 20.669 84.2083 20.921C84.6423 21.173 85.1113 21.299 85.6153 21.299ZM97.4876 23.21C96.6336 23.21 95.8356 23.007 95.0936 22.601C94.3656 22.195 93.7776 21.614 93.3296 20.858C92.8816 20.102 92.6576 19.199 92.6576 18.149C92.6576 17.141 92.8466 16.259 93.2246 15.503C93.6166 14.747 94.1626 14.159 94.8626 13.739C95.5766 13.319 96.4236 13.109 97.4036 13.109C97.9916 13.109 98.5236 13.214 98.9996 13.424C99.4896 13.62 99.8956 13.865 100.218 14.159C100.554 14.439 100.778 14.712 100.89 14.978L100.932 13.361H103.095V23H100.953L100.911 21.299C100.771 21.607 100.533 21.908 100.197 22.202C99.8746 22.496 99.4826 22.741 99.0206 22.937C98.5586 23.119 98.0476 23.21 97.4876 23.21ZM97.8656 21.32C98.3836 21.32 98.8526 21.201 99.2726 20.963C99.7066 20.711 100.05 20.361 100.302 19.913C100.568 19.465 100.701 18.933 100.701 18.317V18.17C100.701 17.54 100.568 16.994 100.302 16.532C100.05 16.056 99.7066 15.692 99.2726 15.44C98.8526 15.174 98.3836 15.041 97.8656 15.041C96.9276 15.041 96.2206 15.342 95.7446 15.944C95.2826 16.546 95.0516 17.288 95.0516 18.17C95.0516 19.066 95.2826 19.815 95.7446 20.417C96.2206 21.019 96.9276 21.32 97.8656 21.32ZM106.632 28.292L108.711 23.294L104.721 13.361H107.283L109.341 19.493L109.803 20.984L110.265 19.493L112.428 13.361H114.906L108.984 28.292H106.632Z" fill="#060B13"/>
</svg>
