<svg width="16" height="16" viewBox="0 0 16 16" fill="none" xmlns="http://www.w3.org/2000/svg">
<path d="M8 4C8 6.20912 6.20917 8 4.00001 8H0V4C0 1.79086 1.79086 0 4.00001 0C6.20917 0 8 1.79086 8 4Z" fill="#5428FF"/>
<path d="M8 12C8 9.79088 9.79088 8 12 8H16V12C16 14.2091 14.2092 16 12 16C9.79088 16 8 14.2091 8 12Z" fill="#5428FF"/>
<path d="M0 12C0 14.2091 1.79086 16 4.00001 16H8V12C8 9.79088 6.20917 8 4.00001 8C1.79086 8 0 9.79088 0 12Z" fill="#8267EC"/>
<path d="M16 4C16 1.79086 14.2092 0 12 0H8V4C8 6.20912 9.79088 8 12 8C14.2092 8 16 6.20912 16 4Z" fill="#8267EC"/>
</svg>
